HIERARCHY
ROOT Hips
{
  OFFSET 1.351 -6.111 -302.186
  CHANNELS 6 Xposition Yposition Zposition Zrotation Xrotation Yrotation
  JOINT LeftUpLeg
  {
    OFFSET 6.980 -6.108 1.806
    CHANNELS 6 Xposition Yposition Zposition Zrotation Xrotation Yrotation
    JOINT LeftLeg
    {
      OFFSET 0.000 -46.686 0.000
      CHANNELS 6 Xposition Yposition Zposition Zrotation Xrotation Yrotation
      JOINT LeftFoot
      {
        OFFSET -0.000 -35.578 -0.000
        CHANNELS 6 Xposition Yposition Zposition Zrotation Xrotation Yrotation
        End Site
        {
          OFFSET 0.000 -7.376 4.258
        }
      }
    }
  }
  JOINT RightUpLeg
  {
    OFFSET -6.500 -6.560 2.568
    CHANNELS 6 Xposition Yposition Zposition Zrotation Xrotation Yrotation
    JOINT RightLeg
    {
      OFFSET 0.000 -44.342 0.000
      CHANNELS 6 Xposition Yposition Zposition Zrotation Xrotation Yrotation
      JOINT RightFoot
      {
        OFFSET -0.000 -37.547 -0.000
        CHANNELS 6 Xposition Yposition Zposition Zrotation Xrotation Yrotation
        End Site
        {
          OFFSET 0.000 -7.342 4.239
        }
      }
    }
  }
  JOINT Spine
  {
    OFFSET 0.000 5.525 -5.525
    CHANNELS 6 Xposition Yposition Zposition Zrotation Xrotation Yrotation
    JOINT LeftShoulder
    {
      OFFSET -0.000 32.038 0.000
      CHANNELS 6 Xposition Yposition Zposition Zrotation Xrotation Yrotation
      JOINT LeftArm
      {
        OFFSET 16.000 0.000 -0.000
        CHANNELS 6 Xposition Yposition Zposition Zrotation Xrotation Yrotation
        JOINT LeftForeArm
        {
          OFFSET 25.284 0.000 0.000
          CHANNELS 6 Xposition Yposition Zposition Zrotation Xrotation Yrotation
          JOINT LeftHand
          {
            OFFSET 23.768 0.000 0.000
            CHANNELS 6 Xposition Yposition Zposition Zrotation Xrotation Yrotation
            JOINT LeftHandThumb1
            {
            OFFSET 4.970 -0.620 3.390
            CHANNELS 6 Xposition Yposition Zposition Zrotation Xrotation Yrotation
              JOINT LeftHandThumb2
              {
              OFFSET 2.150 -0.000 0.000
              CHANNELS 6 Xposition Yposition Zposition Zrotation Xrotation Yrotation
                JOINT LeftHandThumb3
                {
                OFFSET 2.200 -0.000 0.000
                CHANNELS 6 Xposition Yposition Zposition Zrotation Xrotation Yrotation
                  JOINT LeftHandThumb4
                  {
                  OFFSET 1.700 -0.000 0.000
                  CHANNELS 6 Xposition Yposition Zposition Zrotation Xrotation Yrotation
                  }
                }
              }
            }
            JOINT LeftHandIndex1
            {
            OFFSET 8.730 0.680 2.070
            CHANNELS 6 Xposition Yposition Zposition Zrotation Xrotation Yrotation
              JOINT LeftHandIndex2
              {
              OFFSET 2.670 -0.000 0.000
              CHANNELS 6 Xposition Yposition Zposition Zrotation Xrotation Yrotation
                JOINT LeftHandIndex3
                {
                OFFSET 2.130 -0.000 0.000
                CHANNELS 6 Xposition Yposition Zposition Zrotation Xrotation Yrotation
                  JOINT LeftHandIndex4
                  {
                  OFFSET 1.800 -0.000 0.000
                  CHANNELS 6 Xposition Yposition Zposition Zrotation Xrotation Yrotation
                  }
                }
              }
            }
            JOINT LeftHandMiddle1
            {
            OFFSET 9.220 0.670 0.550
            CHANNELS 6 Xposition Yposition Zposition Zrotation Xrotation Yrotation
              JOINT LeftHandMiddle2
              {
              OFFSET 2.660 -0.000 0.000
              CHANNELS 6 Xposition Yposition Zposition Zrotation Xrotation Yrotation
                JOINT LeftHandMiddle3
                {
                OFFSET 2.280 -0.000 0.000
                CHANNELS 6 Xposition Yposition Zposition Zrotation Xrotation Yrotation
                  JOINT LeftHandMiddle4
                  {
                  OFFSET 1.500 -0.000 0.000
                  CHANNELS 6 Xposition Yposition Zposition Zrotation Xrotation Yrotation
                  }
                }
              }
            }
            JOINT LeftHandRing1
            {
            OFFSET 9.250 0.670 -1.130
            CHANNELS 6 Xposition Yposition Zposition Zrotation Xrotation Yrotation
              JOINT LeftHandRing2
              {
              OFFSET 2.470 -0.000 0.000
              CHANNELS 6 Xposition Yposition Zposition Zrotation Xrotation Yrotation
                JOINT LeftHandRing3
                {
                OFFSET 2.210 -0.000 0.000
                CHANNELS 6 Xposition Yposition Zposition Zrotation Xrotation Yrotation
                  JOINT LeftHandRing4
                  {
                  OFFSET 1.800 -0.000 0.000
                  CHANNELS 6 Xposition Yposition Zposition Zrotation Xrotation Yrotation
                  }
                }
              }
            }
            JOINT LeftHandPinky1
            {
            OFFSET 9.350 0.660 -2.720
            CHANNELS 6 Xposition Yposition Zposition Zrotation Xrotation Yrotation
              JOINT LeftHandPinky2
              {
              OFFSET 1.630 -0.000 0.000
              CHANNELS 6 Xposition Yposition Zposition Zrotation Xrotation Yrotation
                JOINT LeftHandPinky3
                {
                OFFSET 1.710 -0.000 0.000
                CHANNELS 6 Xposition Yposition Zposition Zrotation Xrotation Yrotation
                  JOINT LeftHandPinky4
                  {
                  OFFSET 1.800 -0.000 0.000
                  CHANNELS 6 Xposition Yposition Zposition Zrotation Xrotation Yrotation
                  }
                }
              }
            }
          }
        }
      }
    }
    JOINT RightShoulder
    {
      OFFSET -0.000 32.038 0.000
      CHANNELS 6 Xposition Yposition Zposition Zrotation Xrotation Yrotation
      JOINT RightArm
      {
        OFFSET -18.353 0.000 -0.000
        CHANNELS 6 Xposition Yposition Zposition Zrotation Xrotation Yrotation
        JOINT RightForeArm
        {
          OFFSET -23.899 0.000 0.000
          CHANNELS 6 Xposition Yposition Zposition Zrotation Xrotation Yrotation
          JOINT RightHand
          {
            OFFSET -23.506 0.000 -0.000
            CHANNELS 6 Xposition Yposition Zposition Zrotation Xrotation Yrotation
            JOINT RightHandThumb1
            {
            OFFSET -4.970 -0.620 3.390
            CHANNELS 6 Xposition Yposition Zposition Zrotation Xrotation Yrotation
              JOINT RightHandThumb2
              {
              OFFSET -2.150 0.000 0.000
              CHANNELS 6 Xposition Yposition Zposition Zrotation Xrotation Yrotation
                JOINT RightHandThumb3
                {
                OFFSET -2.200 0.000 0.000
                CHANNELS 6 Xposition Yposition Zposition Zrotation Xrotation Yrotation
                  JOINT RightHandThumb4
                  {
                  OFFSET -1.700 0.000 0.000
                  CHANNELS 6 Xposition Yposition Zposition Zrotation Xrotation Yrotation
                  }
                }
              }
            }
            JOINT RightHandIndex1
            {
            OFFSET -8.730 0.680 2.070
            CHANNELS 6 Xposition Yposition Zposition Zrotation Xrotation Yrotation
              JOINT RightHandIndex2
              {
              OFFSET -2.670 0.000 0.000
              CHANNELS 6 Xposition Yposition Zposition Zrotation Xrotation Yrotation
                JOINT RightHandIndex3
                {
                OFFSET -2.130 0.000 0.000
                CHANNELS 6 Xposition Yposition Zposition Zrotation Xrotation Yrotation
                  JOINT RightHandIndex4
                  {
                  OFFSET -1.800 0.000 0.000
                  CHANNELS 6 Xposition Yposition Zposition Zrotation Xrotation Yrotation
                  }
                }
              }
            }
            JOINT RightHandMiddle1
            {
            OFFSET -9.220 0.670 0.550
            CHANNELS 6 Xposition Yposition Zposition Zrotation Xrotation Yrotation
              JOINT RightHandMiddle2
              {
              OFFSET -2.660 0.000 0.000
              CHANNELS 6 Xposition Yposition Zposition Zrotation Xrotation Yrotation
                JOINT RightHandMiddle3
                {
                OFFSET -2.280 0.000 0.000
                CHANNELS 6 Xposition Yposition Zposition Zrotation Xrotation Yrotation
                  JOINT RightHandMiddle4
                  {
                  OFFSET -1.500 0.000 0.000
                  CHANNELS 6 Xposition Yposition Zposition Zrotation Xrotation Yrotation
                  }
                }
              }
            }
            JOINT RightHandRing1
            {
            OFFSET -9.250 0.670 -1.130
            CHANNELS 6 Xposition Yposition Zposition Zrotation Xrotation Yrotation
              JOINT RightHandRing2
              {
              OFFSET -2.470 0.000 0.000
              CHANNELS 6 Xposition Yposition Zposition Zrotation Xrotation Yrotation
                JOINT RightHandRing3
                {
                OFFSET -2.210 0.000 0.000
                CHANNELS 6 Xposition Yposition Zposition Zrotation Xrotation Yrotation
                  JOINT RightHandRing4
                  {
                  OFFSET -1.800 0.000 0.000
                  CHANNELS 6 Xposition Yposition Zposition Zrotation Xrotation Yrotation
                  }
                }
              }
            }
            JOINT RightHandPinky1
            {
            OFFSET -9.350 0.660 -2.720
            CHANNELS 6 Xposition Yposition Zposition Zrotation Xrotation Yrotation
              JOINT RightHandPinky2
              {
              OFFSET -1.630 0.000 0.000
              CHANNELS 6 Xposition Yposition Zposition Zrotation Xrotation Yrotation
                JOINT RightHandPinky3
                {
                OFFSET -1.710 0.000 0.000
                CHANNELS 6 Xposition Yposition Zposition Zrotation Xrotation Yrotation
                  JOINT RightHandPinky4
                  {
                  OFFSET -1.800 0.000 0.000
                  CHANNELS 6 Xposition Yposition Zposition Zrotation Xrotation Yrotation
                  }
                }
              }
            }
          }
        }
      }
    }
    JOINT Neck
    {
      OFFSET -0.000 32.038 0.000
      CHANNELS 6 Xposition Yposition Zposition Zrotation Xrotation Yrotation
      JOINT Head
      {
        OFFSET -0.000 21.071 -0.000
        CHANNELS 6 Xposition Yposition Zposition Zrotation Xrotation Yrotation
        End Site
        {
          OFFSET -0.000 0.084 -0.000
        }
      }
    }
  }
}
MOTION
Frames:	6
Frame Time:	0.0333333
0.560442 -5.8698 -301.937 1.44678 5.1799 -27.0454 6.87513 -6.02061 0.838923 4.32963 -5.02801 5.96319 0 -45.6469 2.38419e-05 6.70056 -4.29572 0.504192 -2.38419e-05 -34.4392 4.76837e-05 -8.238 -27.3991 -7.72532 -6.45102 -6.80221 2.21853 5.80713 -2.84645 6.0191 2.38419e-05 -46.3994 4.76837e-05 -0.869206 1.00659 0.0152695 -1.19209e-05 -36.6239 0 -5.28665 -42.344 -5.86275 1.19209e-05 6.02229 -6.02238 0.595855 -4.10425 0.500363 0 32.0382 0 -25.8722 1.10991e-05 -5.69665 15.0787 0 -7.15256e-05 -37.0282 -0.23394 10.7347 26.4343 -1.19209e-05 9.53674e-05 -10.8142 1.3103 -6.82651 24.6339 0 0 -2.82953 0.0886333 18.7537 0.0062 0.0497 0.0339 0 0 0 0 0.0215 0 0 0 0 0 0.022 0 0 0 0 0 0.017 0 0 0 0 -0.0068 0.0873 0.0207 0 0 0 0 0.0267 0 0 0 0 0 0.0213 0 0 0 0 0 0.018 0 0 0 0 -0.0067 0.0922 0.0055 0 0 0 0 0.0266 0 0 0 0 0 0.0228 0 0 0 0 0 0.015 0 0 0 0 -0.0067 0.0925 -0.0113 0 0 0 0 0.0247 0 0 0 0 0 0.0221 0 0 0 0 0 0.018 0 0 0 0 -0.0066 0.0935 -0.0272 0 0 0 0 0.0163 0 0 0 0 0 0.0171 0 0 0 0 0 0.018 0 0 0 0 0 32.0382 0 20.7148 4.26887e-07 4.64783 -18.4712 5.96046e-06 0 55.2769 1.84489 -23.9831 -26.0846 -3.57628e-05 -2.38419e-05 0.0348425 0.0100216 16.0502 -15.7075 5.96046e-05 -4.76837e-05 3.54923 0.0948647 3.56029 -0.0062 0.0497 0.0339 45 0 0 0 0.0215 0 0 -45 0 0 0.022 0 0 -45 0 0 0.017 0 0 0 0 0.0068 0.0873 0.0207 45 0 0 0 0.0267 0 80 0 0 0 0.0213 0 90 0 0 0 0.018 0 0 0 0 0.0067 0.0922 0.0055 45 0 0 0 0.0266 0 80 0 0 0 0.0228 0 90 0 0 0 0.015 0 0 0 0 0.0067 0.0925 -0.0113 45 0 0 0 0.0247 0 80 0 0 0 0.0221 0 90 0 0 0 0.018 0 0 0 0 0.0066 0.0935 -0.0272 45 0 0 0 0.0163 0 80 0 0 0 0.0171 0 90 0 0 0 0.018 0 0 0 0 0 32.0382 0 10.9079 3.69952 -0.712411 -3.57628e-05 21.692 2.38419e-05 9.91178e-06 -1.00585e-05 -1.70755e-06 
0.627213 -5.87004 -301.953 1.72958 6.16679 -26.7035 6.86654 -5.94379 0.896692 4.35759 -6.09515 5.78884 0 -45.4688 4.76837e-05 6.74397 -4.21838 0.498364 2.38419e-05 -34.5278 -9.53674e-05 -8.32608 -25.399 -7.6952 -6.40274 -6.78207 2.23377 5.89466 -3.7544 5.88263 0 -46.4012 0 -0.624355 0.780882 0.00850608 1.19209e-05 -36.9328 0 -4.28849 -36.9255 -4.69641 -1.19209e-05 6.00857 -6.00858 0.879709 -4.27309 0.204407 2.38419e-05 32.0382 -2.38419e-05 -26.2976 1.28066e-05 -5.42173 15.0168 1.19209e-05 4.76837e-05 -36.6219 0.388516 11.3491 26.5604 1.19209e-05 2.38419e-05 -10.3915 1.23949 -6.72753 24.6404 2.38419e-05 2.38419e-05 -3.12371 0.0684836 19.2181 0.0062 0.0497 0.0339 0 0 0 0 0.0215 0 0 0 0 0 0.022 0 0 0 0 0 0.017 0 0 0 0 -0.0068 0.0873 0.0207 0 0 0 0 0.0267 0 0 0 0 0 0.0213 0 0 0 0 0 0.018 0 0 0 0 -0.0067 0.0922 0.0055 0 0 0 0 0.0266 0 0 0 0 0 0.0228 0 0 0 0 0 0.015 0 0 0 0 -0.0067 0.0925 -0.0113 0 0 0 0 0.0247 0 0 0 0 0 0.0221 0 0 0 0 0 0.018 0 0 0 0 -0.0066 0.0935 -0.0272 0 0 0 0 0.0163 0 0 0 0 0 0.0171 0 0 0 0 0 0.018 0 0 0 0 2.38419e-05 32.0382 -2.38419e-05 20.0785 -3.4151e-06 4.46199 -18.2379 5.96046e-06 -4.76837e-05 56.2719 1.51498 -22.8289 -25.9921 2.38419e-05 2.38419e-05 -4.67799 -0.56147 6.82882 -14.044 3.57628e-05 2.38419e-05 5.53849 0.190016 12.1682 -0.0062 0.0497 0.0339 45 0 0 0 0.0215 0 0 -45 0 0 0.022 0 0 -45 0 0 0.017 0 0 0 0 0.0068 0.0873 0.0207 45 0 0 0 0.0267 0 80 0 0 0 0.0213 0 90 0 0 0 0.018 0 0 0 0 0.0067 0.0922 0.0055 45 0 0 0 0.0266 0 80 0 0 0 0.0228 0 90 0 0 0 0.015 0 0 0 0 0.0067 0.0925 -0.0113 45 0 0 0 0.0247 0 80 0 0 0 0.0221 0 90 0 0 0 0.018 0 0 0 0 0.0066 0.0935 -0.0272 45 0 0 0 0.0163 0 80 0 0 0 0.0171 0 90 0 0 0 0.018 0 0 0 0 2.38419e-05 32.0382 -2.38419e-05 10.8517 3.05251 -0.584862 0 21.4613 -2.38419e-05 1.23797e-05 -1.02986e-05 -3.41509e-06 
0.646547 -5.86347 -301.962 1.84807 6.5717 -26.607 6.86446 -5.92034 0.918961 4.3573 -6.55627 5.75641 2.38419e-05 -45.4572 0 6.86305 -4.20458 0.505594 1.19209e-05 -34.5514 2.38419e-05 -8.38365 -24.1662 -7.64601 -6.38727 -6.77567 2.24867 5.94853 -4.15363 5.86934 1.19209e-05 -46.4366 0 -0.582658 0.721711 0.0073345 0 -36.9984 0 -4.01548 -34.712 -4.36299 0 5.99607 -5.99606 0.982946 -4.43547 0.0958055 -1.19209e-05 32.0382 -2.38419e-05 -26.4503 1.53679e-05 -5.30087 14.9978 5.96046e-06 7.15256e-05 -36.4977 0.599075 11.5115 26.6065 -1.19209e-05 -4.76837e-05 -10.435 1.26391 -6.82987 24.6346 -2.38419e-05 0 -3.32081 0.059015 19.3822 0.0062 0.0497 0.0339 0 0 0 0 0.0215 0 0 0 0 0 0.022 0 0 0 0 0 0.017 0 0 0 0 -0.0068 0.0873 0.0207 0 0 0 0 0.0267 0 0 0 0 0 0.0213 0 0 0 0 0 0.018 0 0 0 0 -0.0067 0.0922 0.0055 0 0 0 0 0.0266 0 0 0 0 0 0.0228 0 0 0 0 0 0.015 0 0 0 0 -0.0067 0.0925 -0.0113 0 0 0 0 0.0247 0 0 0 0 0 0.0221 0 0 0 0 0 0.018 0 0 0 0 -0.0066 0.0935 -0.0272 0 0 0 0 0.0163 0 0 0 0 0 0.0171 0 0 0 0 0 0.018 0 0 0 0 -1.19209e-05 32.0382 -2.38419e-05 19.7703 -3.84198e-06 4.36287 -18.2139 -5.96046e-06 -2.38419e-05 56.7642 1.4222 -22.4606 -25.9726 -1.19209e-05 -4.76837e-05 -6.04316 -0.454586 4.28583 -13.7571 -3.57628e-05 9.53674e-05 6.3815 0.245353 15.0088 -0.0062 0.0497 0.0339 45 0 0 0 0.0215 0 0 -45 0 0 0.022 0 0 -45 0 0 0.017 0 0 0 0 0.0068 0.0873 0.0207 45 0 0 0 0.0267 0 80 0 0 0 0.0213 0 90 0 0 0 0.018 0 0 0 0 0.0067 0.0922 0.0055 45 0 0 0 0.0266 0 80 0 0 0 0.0228 0 90 0 0 0 0.015 0 0 0 0 0.0067 0.0925 -0.0113 45 0 0 0 0.0247 0 80 0 0 0 0.0221 0 90 0 0 0 0.018 0 0 0 0 0.0066 0.0935 -0.0272 45 0 0 0 0.0163 0 80 0 0 0 0.0171 0 90 0 0 0 0.018 0 0 0 0 -1.19209e-05 32.0382 -2.38419e-05 10.841 2.90076 -0.555248 0 21.3807 2.38419e-05 1.13992e-05 -9.91178e-06 0 
0.704587 -5.91243 -301.993 2.78003 7.83351 -26.7108 6.82967 -5.93863 0.947785 3.64697 -8.63948 6.082 3.57628e-05 -45.4449 4.76837e-05 7.5031 -3.6102 0.475163 -3.57628e-05 -34.7497 4.76837e-05 -7.14775 -19.8651 -6.30897 -6.38824 -6.70877 2.36375 5.63068 -5.85301 6.30907 1.19209e-05 -46.29 4.76837e-05 -0.457271 0.837 0.00668235 0 -37.1889 -2.38419e-05 -3.86982 -32.9632 -4.13034 -1.19209e-05 5.94004 -5.94013 0.90656 -5.08703 0.431207 1.19209e-05 32.0382 0 -26.8164 1.36604e-05 -5.01523 15.0244 -8.9407e-06 -2.38419e-05 -36.301 0.874477 11.5194 26.7414 0 4.76837e-05 -12.7862 2.18004 -9.51542 25.0283 0 2.38419e-05 -2.3969 0.0729669 20.7521 0.0062 0.0497 0.0339 0 0 0 0 0.0215 0 0 0 0 0 0.022 0 0 0 0 0 0.017 0 0 0 0 -0.0068 0.0873 0.0207 0 0 0 0 0.0267 0 0 0 0 0 0.0213 0 0 0 0 0 0.018 0 0 0 0 -0.0067 0.0922 0.0055 0 0 0 0 0.0266 0 0 0 0 0 0.0228 0 0 0 0 0 0.015 0 0 0 0 -0.0067 0.0925 -0.0113 0 0 0 0 0.0247 0 0 0 0 0 0.0221 0 0 0 0 0 0.018 0 0 0 0 -0.0066 0.0935 -0.0272 0 0 0 0 0.0163 0 0 0 0 0 0.0171 0 0 0 0 0 0.018 0 0 0 0 1.19209e-05 32.0382 0 20.7736 -4.69575e-06 4.10257 -18.3589 5.96046e-06 -4.76837e-05 55.8054 2.02557 -23.6718 -26.2027 1.19209e-05 0 -0.991653 -0.202737 11.5537 -16.121 -2.38419e-05 -2.38419e-05 4.59775 0.213283 17.7178 -0.0062 0.0497 0.0339 45 0 0 0 0.0215 0 0 -45 0 0 0.022 0 0 -45 0 0 0.017 0 0 0 0 0.0068 0.0873 0.0207 45 0 0 0 0.0267 0 80 0 0 0 0.0213 0 90 0 0 0 0.018 0 0 0 0 0.0067 0.0922 0.0055 45 0 0 0 0.0266 0 80 0 0 0 0.0228 0 90 0 0 0 0.015 0 0 0 0 0.0067 0.0925 -0.0113 45 0 0 0 0.0247 0 80 0 0 0 0.0221 0 90 0 0 0 0.018 0 0 0 0 0.0066 0.0935 -0.0272 45 0 0 0 0.0163 0 80 0 0 0 0.0171 0 90 0 0 0 0.018 0 0 0 0 1.19209e-05 32.0382 0 10.6558 1.7736 -0.333661 1.19209e-05 21.155 2.38419e-05 8.40433e-06 -8.6578e-06 0 
0.700855 -5.99656 -302.083 3.60758 9.12289 -26.911 6.80871 -6.00733 1.00286 3.38275 -11.3876 6.05873 0 -46.3107 -4.76837e-05 8.25913 -1.97688 0.2869 -1.19209e-05 -34.7136 2.38419e-05 -7.2173 -16.1338 -5.99675 -6.42728 -6.68263 2.41628 5.6735 -8.13593 6.41866 1.19209e-05 -46.1292 4.76837e-05 -0.567031 2.06686 0.0204561 -3.57628e-05 -37.3522 -4.76837e-05 -3.07394 -30.4938 -3.28225 3.57628e-05 5.88129 -5.88129 1.0106 -5.81912 0.558533 -2.38419e-05 32.0382 -2.38419e-05 -26.8771 1.53679e-05 -4.49492 15.1786 -5.96046e-06 0 -36.7716 0.954905 10.8685 26.8094 1.19209e-05 2.38419e-05 -13.9899 2.69997 -10.7067 25.1499 -2.38419e-05 -4.76837e-05 -0.977153 0.132166 21.7598 0.0062 0.0497 0.0339 0 0 0 0 0.0215 0 0 0 0 0 0.022 0 0 0 0 0 0.017 0 0 0 0 -0.0068 0.0873 0.0207 0 0 0 0 0.0267 0 0 0 0 0 0.0213 0 0 0 0 0 0.018 0 0 0 0 -0.0067 0.0922 0.0055 0 0 0 0 0.0266 0 0 0 0 0 0.0228 0 0 0 0 0 0.015 0 0 0 0 -0.0067 0.0925 -0.0113 0 0 0 0 0.0247 0 0 0 0 0 0.0221 0 0 0 0 0 0.018 0 0 0 0 -0.0066 0.0935 -0.0272 0 0 0 0 0.0163 0 0 0 0 0 0.0171 0 0 0 0 0 0.018 0 0 0 0 -2.38419e-05 32.0382 -2.38419e-05 21.1859 -1.70755e-06 3.72496 -18.3102 -1.78814e-05 0 55.273 2.40776 -23.4953 -26.3604 0 -4.76837e-05 0.291078 0.0688996 13.3156 -17.1323 -3.57628e-05 2.38419e-05 2.11732 0.0265751 18.4306 -0.0062 0.0497 0.0339 45 0 0 0 0.0215 0 0 -45 0 0 0.022 0 0 -45 0 0 0.017 0 0 0 0 0.0068 0.0873 0.0207 45 0 0 0 0.0267 0 80 0 0 0 0.0213 0 90 0 0 0 0.018 0 0 0 0 0.0067 0.0922 0.0055 45 0 0 0 0.0266 0 80 0 0 0 0.0228 0 90 0 0 0 0.015 0 0 0 0 0.0067 0.0925 -0.0113 45 0 0 0 0.0247 0 80 0 0 0 0.0221 0 90 0 0 0 0.018 0 0 0 0 0.0066 0.0935 -0.0272 45 0 0 0 0.0163 0 80 0 0 0 0.0171 0 90 0 0 0 0.018 0 0 0 0 -2.38419e-05 32.0382 -2.38419e-05 10.1425 0.83241 -0.148899 2.38419e-05 21.027 7.15256e-05 1.01652e-05 -1.16327e-05 -1.70755e-06 
0.680031 -6.55807 -302.386 5.86685 12.4985 -28.0483 6.84235 -6.20225 1.28961 3.08847 -18.3186 5.40907 -1.19209e-05 -47.2083 7.15256e-05 9.85691 2.54711 -0.442409 2.38419e-05 -34.1158 -2.38419e-05 -10.6306 -7.35463 -6.74833 -6.59285 -6.74636 2.57084 6.49026 -15.3941 6.36064 0 -45.3246 0 -1.61666 7.49388 0.210903 0 -38.1878 0 -2.32675 -28.7544 -2.46263 0 5.72456 -5.72453 0.863856 -8.64976 0.931499 -3.57628e-05 32.0382 0 -27.6233 1.36604e-05 -4.84807 15.4141 5.96046e-06 -2.38419e-05 -37.6549 -0.051054 10.1033 27.2662 1.19209e-05 2.38419e-05 -14.5861 2.96361 -11.2373 24.7126 -1.19209e-05 2.38419e-05 1.25208 0.22951 21.2154 0.0062 0.0497 0.0339 0 0 0 0 0.0215 0 0 0 0 0 0.022 0 0 0 0 0 0.017 0 0 0 0 -0.0068 0.0873 0.0207 0 0 0 0 0.0267 0 0 0 0 0 0.0213 0 0 0 0 0 0.018 0 0 0 0 -0.0067 0.0922 0.0055 0 0 0 0 0.0266 0 0 0 0 0 0.0228 0 0 0 0 0 0.015 0 0 0 0 -0.0067 0.0925 -0.0113 0 0 0 0 0.0247 0 0 0 0 0 0.0221 0 0 0 0 0 0.018 0 0 0 0 -0.0066 0.0935 -0.0272 0 0 0 0 0.0163 0 0 0 0 0 0.0171 0 0 0 0 0 0.018 0 0 0 0 -3.57628e-05 32.0382 0 22.7736 -4.69575e-06 3.97978 -18.7697 -5.96046e-06 -4.76837e-05 54.2231 1.66734 -22.413 -26.7687 0 2.38419e-05 4.00088 1.40551 19.3254 -19.8203 1.19209e-05 0 -13.0145 -1.1635 10.8231 -0.0062 0.0497 0.0339 45 0 0 0 0.0215 0 0 -45 0 0 0.022 0 0 -45 0 0 0.017 0 0 0 0 0.0068 0.0873 0.0207 45 0 0 0 0.0267 0 80 0 0 0 0.0213 0 90 0 0 0 0.018 0 0 0 0 0.0067 0.0922 0.0055 45 0 0 0 0.0266 0 80 0 0 0 0.0228 0 90 0 0 0 0.015 0 0 0 0 0.0067 0.0925 -0.0113 45 0 0 0 0.0247 0 80 0 0 0 0.0221 0 90 0 0 0 0.018 0 0 0 0 0.0066 0.0935 -0.0272 45 0 0 0 0.0163 0 80 0 0 0 0.0171 0 90 0 0 0 0.018 0 0 0 0 -3.57628e-05 32.0382 0 10.2973 0.690039 -0.125362 1.19209e-05 20.7067 0 8.7245e-06 -9.36483e-06 0 
